<?xml version="1.0" standalone="no"?>
<!DOCTYPE svg PUBLIC "-//W3C//DTD SVG 20010904//EN"
 "http://www.w3.org/TR/2001/REC-SVG-20010904/DTD/svg10.dtd">
<svg version="1.0" xmlns="http://www.w3.org/2000/svg"
 width="712.000000pt" height="712.000000pt" viewBox="0 0 712.000000 712.000000"
 preserveAspectRatio="xMidYMid meet">
<metadata>
Created by potrace 1.11, written by Peter Selinger 2001-2013
</metadata>
<g transform="translate(0.000000,712.000000) scale(0.100000,-0.100000)"
fill="#000000" stroke="none">
<path d="M2395 6522 c-3 -3 -16 -5 -105 -16 -125 -15 -325 -67 -453 -118 -528
-209 -915 -618 -1037 -1098 -47 -183 -47 -477 -1 -595 5 -11 14 -38 21 -60 60
-197 267 -490 499 -709 30 -28 69 -65 87 -82 18 -17 48 -44 66 -59 202 -169
397 -358 487 -471 40 -50 111 -153 111 -160 0 -2 13 -24 29 -49 41 -64 106
-236 117 -307 24 -160 24 -242 1 -343 -8 -35 -63 -129 -95 -162 -55 -56 -105
-77 -182 -78 -55 0 -75 6 -127 34 -64 34 -144 108 -188 174 -73 107 -121 225
-200 492 -67 224 -94 284 -157 346 -57 57 -118 75 -206 63 -58 -8 -70 -10 -74
-13 -2 -2 -12 -4 -23 -6 -86 -17 -215 -71 -319 -135 -98 -60 -118 -76 -208
-165 -139 -136 -169 -215 -144 -380 6 -44 83 -208 113 -240 10 -11 31 -38 47
-60 32 -44 208 -221 271 -273 22 -18 74 -57 115 -87 41 -31 80 -59 85 -63 6
-4 48 -31 95 -59 146 -88 348 -175 485 -209 100 -25 158 -37 195 -41 90 -9
326 -11 375 -3 28 5 68 11 90 15 97 15 292 89 390 148 96 57 221 144 263 182
57 51 60 48 42 -33 -6 -23 -12 -57 -14 -75 -3 -18 -5 -32 -6 -32 -2 0 -7 -25
-14 -72 -3 -21 -8 -49 -10 -62 -3 -14 -8 -47 -11 -74 -3 -28 -8 -53 -10 -56
-2 -4 -6 -34 -10 -68 -3 -34 -7 -70 -9 -80 -4 -18 -16 -118 -21 -178 -2 -16
-6 -73 -10 -125 -4 -52 -8 -111 -10 -130 -5 -43 14 -158 26 -166 5 -3 9 -12 9
-20 0 -32 95 -129 150 -152 60 -25 127 -22 230 12 128 42 345 149 388 193 7 7
17 13 21 13 4 0 16 8 27 17 10 10 37 31 59 48 22 16 72 61 111 100 61 60 79
87 129 190 32 66 62 129 66 140 12 28 50 147 54 165 2 12 20 77 30 110 1 3 5
19 9 35 4 17 12 48 17 70 5 22 12 50 14 63 2 13 6 31 9 40 3 9 7 28 10 42 3
14 14 68 25 120 20 94 29 142 36 190 3 14 7 36 10 50 6 32 26 136 32 175 16
97 20 110 27 90 9 -23 52 -108 75 -147 50 -83 95 -164 123 -219 50 -98 239
-354 347 -468 169 -180 286 -291 428 -408 21 -17 48 -39 60 -50 11 -10 31 -25
43 -33 12 -8 48 -34 79 -57 54 -40 263 -153 306 -165 11 -3 50 -17 86 -31 159
-59 383 -69 495 -22 18 7 34 11 37 9 2 -3 10 2 17 11 7 8 17 15 23 15 44 0
216 168 278 272 56 93 98 179 99 199 0 8 4 19 9 25 8 8 31 82 46 147 2 10 6
26 9 35 11 37 43 239 49 305 3 39 0 50 -15 58 -10 5 -18 7 -18 4 0 -3 -16 1
-35 9 -20 9 -39 16 -43 16 -20 2 -66 16 -147 42 -49 17 -94 31 -100 33 -5 1
-19 6 -30 10 -11 4 -72 28 -135 52 -118 45 -323 144 -351 169 -8 8 -19 14 -22
14 -13 0 -150 99 -209 151 -94 82 -238 245 -238 270 0 3 15 12 33 20 107 42
359 175 377 199 3 3 21 17 40 30 105 72 309 293 379 410 18 30 84 162 112 225
18 40 69 215 74 255 16 121 19 156 18 230 0 82 -9 189 -18 220 -2 8 -7 29 -10
45 -8 38 -13 60 -15 60 -1 0 -3 8 -5 18 -13 66 -110 258 -160 314 -5 6 -21 26
-35 45 -32 43 -140 150 -209 208 -150 126 -395 252 -608 315 -100 30 -89 27
-208 53 -80 18 -115 24 -215 37 -59 8 -230 18 -295 19 -145 0 -459 -26 -610
-50 -16 -3 -46 -7 -65 -9 -80 -8 -345 -65 -428 -91 -23 -8 -47 -14 -52 -14 -5
0 4 33 20 73 35 91 56 159 66 217 9 55 10 212 1 260 -12 63 -29 124 -42 155
-8 17 -15 37 -17 45 -2 8 -18 39 -35 68 -18 29 -33 56 -33 61 0 5 -3 11 -8 13
-4 2 -23 23 -41 47 -66 84 -200 178 -316 221 -61 23 -203 63 -270 75 -42 8
-46 9 -135 21 -53 7 -379 12 -385 6z m128 -595 c49 -10 196 -259 222 -377 2
-8 8 -27 14 -42 6 -16 8 -28 5 -28 -4 0 -2 -6 4 -12 6 -7 10 -16 10 -21 0 -10
12 -94 18 -120 18 -80 21 -397 5 -440 -6 -16 -7 -26 -1 -22 5 3 3 -16 -5 -42
-8 -26 -15 -58 -15 -71 0 -13 -15 -52 -34 -88 -19 -35 -42 -87 -51 -115 l-17
-51 -41 39 c-181 170 -327 336 -327 370 0 7 -4 13 -10 13 -5 0 -10 6 -10 14 0
8 -4 16 -8 18 -21 9 -83 182 -103 284 -13 72 -7 250 10 282 6 12 9 22 7 22 -3
0 1 18 9 40 8 22 11 40 8 40 -4 0 -2 5 5 12 7 7 12 19 12 27 0 31 81 180 118
217 56 54 98 67 175 51z m2194 -1092 c18 -2 51 -9 75 -16 24 -7 48 -13 53 -14
62 -13 209 -97 268 -154 34 -32 101 -118 102 -131 1 -3 8 -21 17 -40 77 -162
103 -460 63 -695 -11 -62 -48 -201 -63 -235 -8 -19 -18 -44 -22 -55 -47 -120
-158 -303 -235 -387 -22 -24 -67 -62 -100 -84 -60 -41 -181 -107 -189 -102 -2
2 -12 -4 -22 -13 -11 -9 -30 -20 -44 -24 -14 -4 -53 -21 -88 -36 -34 -16 -65
-29 -67 -29 -6 0 -106 -45 -158 -71 -48 -23 -46 -24 -42 4 10 66 14 91 24 139
6 29 13 67 16 83 3 17 7 41 10 55 3 14 8 40 11 59 3 18 8 43 10 55 6 33 25
133 30 163 2 16 9 51 14 78 6 28 12 64 15 80 2 17 9 55 15 85 6 30 13 69 16
85 6 42 12 81 24 145 13 66 18 95 24 135 2 17 14 84 26 150 13 66 24 130 25
143 2 12 9 55 16 95 6 40 12 78 12 85 0 6 4 12 9 12 5 0 6 5 3 10 -4 6 -2 34
4 63 6 28 13 70 16 92 3 22 7 47 10 55 4 16 15 80 20 120 5 41 16 93 21 101 2
4 14 6 27 3 12 -2 36 -6 54 -9z m-1221 -265 c-15 -51 -17 -60 -21 -77 -2 -10
-13 -48 -24 -85 -11 -38 -17 -68 -15 -68 3 0 2 -6 -3 -12 -4 -7 -8 -17 -9 -23
-5 -23 -97 -366 -118 -435 l-23 -75 -18 35 c-26 51 -123 189 -162 230 -18 19
-33 38 -33 41 0 3 -49 57 -110 120 -60 63 -110 118 -110 123 0 5 3 7 6 4 3 -4
20 -2 37 3 18 6 39 12 47 14 8 2 40 13 70 25 82 33 94 37 105 40 6 1 22 11 37
21 14 10 28 19 31 19 2 0 22 8 43 17 22 9 41 17 44 18 3 1 26 12 52 24 26 12
51 22 55 23 5 1 26 9 48 19 55 25 78 25 71 -1z"/>
</g>
</svg>
